<svg width="75" height="75" viewBox="0 0 75 75" fill="none" xmlns="http://www.w3.org/2000/svg">
<path fill-rule="evenodd" clip-rule="evenodd" d="M54.8528 7.27921C51.5571 7.27921 48.3964 5.97001 46.066 3.63961C41.2132 -1.2132 33.3452 -1.2132 28.4924 3.63961C26.162 5.97001 23.0013 7.27921 19.7056 7.27921C12.8427 7.27921 7.27922 12.8427 7.27922 19.7056C7.27922 23.0013 5.97001 26.162 3.63961 28.4924C-1.21321 33.3452 -1.2132 41.2132 3.63961 46.066C5.97001 48.3964 7.27922 51.5571 7.27922 54.8528C7.27922 61.7157 12.8427 67.2792 19.7056 67.2792C23.0013 67.2792 26.162 68.5884 28.4924 70.9188C33.3452 75.7716 41.2132 75.7716 46.066 70.9188C48.3964 68.5884 51.5571 67.2792 54.8528 67.2792C61.7157 67.2792 67.2792 61.7157 67.2792 54.8528C67.2792 51.5571 68.5884 48.3964 70.9188 46.066C75.7716 41.2132 75.7716 33.3452 70.9188 28.4924C68.5884 26.162 67.2792 23.0013 67.2792 19.7056C67.2792 12.8427 61.7157 7.27921 54.8528 7.27921Z" fill="#36B13A"/>
<path fill-rule="evenodd" clip-rule="evenodd" d="M27.8449 54.127C27.2163 53.9566 26.6229 53.6315 26.1285 53.1518L14.1501 41.5295C12.6166 40.0415 12.6166 37.6291 14.1501 36.1412C15.6836 34.6533 18.1699 34.6533 19.7034 36.1412L29.4587 45.6066L54.7829 21.035C56.2052 19.655 58.5111 19.655 59.9334 21.035C61.3556 22.415 61.3556 24.6524 59.9334 26.0324L31.7818 53.3473C30.7175 54.38 29.1583 54.6399 27.8449 54.127Z" fill="white"/>
</svg>
